<?xml version="1.0" encoding="utf-8"?>
<!-- Generator: Adobe Illustrator 26.3.1, SVG Export Plug-In . SVG Version: 6.00 Build 0)  -->
<svg version="1.1" id="Pokeball" xmlns="http://www.w3.org/2000/svg" xmlns:xlink="http://www.w3.org/1999/xlink" x="0px" y="0px"
	 viewBox="0 0 732 729.4" style="enable-background:new 0 0 732 729.4;" xml:space="preserve">
<style type="text/css">
	.st0{fill:#FFFFFF;}
	.st1{fill:#EE1B24;}
</style>
<g id="Bottom">
	<path id="Bottom_00000093165069249971571110000001882991005225895817_" class="st0" d="M537.7,662.8
		c-165.8,95.5-377.2,39.6-472-125.1l187.1-107.8c87.5,147.7,310.6,20.6,226.7-130.6l186.8-107.6
		C761.1,356.3,703.6,567.2,537.7,662.8z"/>
	<path d="M363.9,729.4c-135.2,1.3-264.4-78.6-325.5-199.1l221.8-127.8c74,157.2,290.8,32.2,191.9-110.6l221.5-127.6
		C831.2,405.8,651,731.4,363.9,729.4z M93.5,544.7c89.4,141.1,290.9,187.2,434.2,100.7c146.7-80.6,207.9-278,130.7-426.2l-152.7,88
		c65.9,161.5-152.9,287-259.1,149.3L93.5,544.7z"/>
</g>
<g id="Center">
	<path id="Center_00000134207936564785277490000017526118293625372081_" class="st0" d="M497.1,364.9c0,72.2-58.6,130.8-130.8,130.8
		c-48.6,0-91-26.5-113.5-65.8c-11-19.1-17.3-41.3-17.3-65c0-72.2,58.6-130.8,130.8-130.8c48.4,0,90.6,26.2,113.2,65.2
		C490.7,318.6,497.1,341,497.1,364.9z"/>
	<path d="M366.3,515.7c-53.9,0-104.1-29.1-130.9-75.9c-13-22.6-19.9-48.6-19.9-74.9c0-83.2,67.6-150.8,150.8-150.8
		c26.9,0,53.4,7.2,76.4,20.7c22.4,13.2,41.1,32,54.1,54.4c13.3,22.9,20.3,49,20.3,75.6C517.1,448.1,449.5,515.7,366.3,515.7z
		 M366.3,254.1c-61.1,0-110.8,49.7-110.8,110.8c0,19.4,5.1,38.4,14.6,55c19.7,34.4,56.5,55.8,96.2,55.8
		c61.1,0,110.8-49.7,110.8-110.8c0-19.6-5.2-38.8-14.9-55.6C442.5,275.3,405.7,254.1,366.3,254.1z"/>
</g>
<g id="Top">
	<path id="Top_00000067207527764497900080000004421116185647101331_" class="st1" d="M666.3,191.7L479.5,299.3
		c-87.7-146.6-309.6-20.2-226.7,130.6L65.7,537.7C-153.3,141.8,433.9-196.1,666.3,191.7z"/>
	<path d="M58.4,565C-55.3,395.7,5.2,147.1,184.2,49.3C358.7-56.5,604.2,15.8,693.6,199L472.2,326.6
		c-74.3-156-289.9-31.7-192.1,110.7L58.4,565z M367.6,39.9c-232.8-7.4-404.9,263.9-294,470.2l153.1-88.2
		c-65-160.9,152.7-286,259-149.2l152.8-88C580.4,94.9,474.8,39.3,367.6,39.9z"/>
</g>
</svg>
